<?xml version="1.0" encoding="UTF-8" standalone="no"?>
<svg
   width="800"
   height="800"
   version="1.1"
   id="svg846"
   sodipodi:docname="tray.svg"
   inkscape:version="1.1.1 (3bf5ae0d25, 2021-09-20)"
   xmlns:inkscape="http://www.inkscape.org/namespaces/inkscape"
   xmlns:sodipodi="http://sodipodi.sourceforge.net/DTD/sodipodi-0.dtd"
   xmlns="http://www.w3.org/2000/svg"
   xmlns:svg="http://www.w3.org/2000/svg">
  <sodipodi:namedview
     id="namedview848"
     pagecolor="#ffffff"
     bordercolor="#666666"
     borderopacity="1.0"
     inkscape:pageshadow="2"
     inkscape:pageopacity="0.0"
     inkscape:pagecheckerboard="0"
     showgrid="false"
     inkscape:zoom="1.0414072"
     inkscape:cx="397.05892"
     inkscape:cy="484.44069"
     inkscape:window-width="2560"
     inkscape:window-height="1377"
     inkscape:window-x="3832"
     inkscape:window-y="509"
     inkscape:window-maximized="1"
     inkscape:current-layer="g844" />
  <desc
     id="desc824">tray.dxf - scale = 1.0, origin = (0.0, 0.0), method = manual</desc>
  <defs
     id="defs838">
    <marker
       id="DistanceX"
       orient="auto"
       refX="0"
       refY="0"
       style="overflow:visible">
      <path
         d="M 3,-3 -3,3 M 0,-5 V 5"
         style="stroke:#000000;stroke-width:0.5"
         id="path826" />
    </marker>
    <pattern
       id="Hatch"
       patternUnits="userSpaceOnUse"
       width="8"
       height="8"
       x="0"
       y="0">
      <path
         d="M8 4 l-4,4"
         stroke="#000000"
         stroke-width="0.25"
         linecap="square"
         id="path829" />
      <path
         d="M6 2 l-4,4"
         stroke="#000000"
         stroke-width="0.25"
         linecap="square"
         id="path831" />
      <path
         d="M4 0 l-4,4"
         stroke="#000000"
         stroke-width="0.25"
         linecap="square"
         id="path833" />
    </pattern>
    <symbol
       id="*MODEL_SPACE" />
    <symbol
       id="*PAPER_SPACE" />
  </defs>
  <g
     inkscape:groupmode="layer"
     inkscape:label="0"
     id="g844">
    <path
       d="m 439.87544,71.519351 a 74.214344,74.661116 0 0 1 0,126.735429 v 12.55884 a 25.157405,25.308853 0 0 1 -25.15739,25.30885 h -28.1763 a 25.157405,25.308853 0 0 1 -25.15741,-25.30885 v -12.55884 a 74.214344,74.661116 0 0 1 0,-126.735429 V 25.875732 a 2.5157408,2.5308855 0 0 0 -2.79601,-2.51513 377.36107,379.6328 0 0 0 -47.75585,8.541747 2.5157408,2.5308855 0 0 0 -1.79396,3.240274 l 9.24286,28.617832 a 2.5157408,2.5308855 0 0 1 -1.77407,3.235278 342.1407,344.20039 0 0 0 -21.60471,6.280259 l -2.39261,0.782087 a 2.5157408,2.5308855 0 0 1 -3.17003,-1.624923 L 280.03457,43.62168 a 2.5157408,2.5308855 0 0 0 -3.21804,-1.608693 377.36107,379.6328 0 0 0 -62.60072,28.539485 2.5157408,2.5308855 0 0 0 -0.79251,3.688136 L 321.47657,223.8585 a 25.157405,25.308853 0 0 1 -5.56561,35.35146 l -22.7951,16.6613 a 25.157405,25.308853 0 0 1 -35.13993,-5.5991 L 149.92265,120.65425 a 2.5157408,2.5308855 0 0 0 -3.73152,-0.38143 377.36107,379.6328 0 0 0 -46.32496,51.07607 2.5157408,2.5308855 0 0 0 0.52638,3.57606 l 24.36185,17.80647 a 2.5157408,2.5308855 0 0 1 0.55657,3.53515 l -2.95744,4.09506 a 2.5157408,2.5308855 0 0 1 -3.514,0.55992 L 94.47768,183.11507 a 2.5157408,2.5308855 0 0 0 -3.54335,0.60144 377.36107,379.6328 0 0 0 -33.970351,60.10622 2.5157408,2.5308855 0 0 0 1.51371,3.45241 l 174.833901,57.14895 a 25.157405,25.308853 0 0 1 16.15204,31.89101 l -8.70696,26.95857 A 25.157405,25.308853 0 0 1 209.0565,379.52296 L 34.222599,322.374 a 2.5157408,2.5308855 0 0 0 -3.24173,1.89797 377.36107,379.6328 0 0 0 -7.63557,68.71443 2.5157408,2.5308855 0 0 0 2.51523,2.58184 h 30.11291 a 2.5157408,2.5308855 0 0 1 2.51574,2.53089 v 5.06177 a 2.5157408,2.5308855 0 0 1 -2.51574,2.53089 h -30.11291 a 2.5157408,2.5308855 0 0 0 -2.51523,2.58185 377.36107,379.6328 0 0 0 7.63557,68.71443 2.5157408,2.5308855 0 0 0 3.24173,1.89796 L 209.0565,421.73708 a 25.157405,25.308853 0 0 1 31.70017,16.24929 l 8.70696,26.95855 a 25.157405,25.308853 0 0 1 -16.15204,31.89103 L 58.477689,553.98488 a 2.5157408,2.5308855 0 0 0 -1.51371,3.45241 377.36107,379.6328 0 0 0 33.970351,60.10624 2.5157408,2.5308855 0 0 0 3.54337,0.60143 l 24.36183,-17.80647 a 2.5157408,2.5308855 0 0 1 3.514,0.55991 l 2.95744,4.09507 a 2.5157408,2.5308855 0 0 1 -0.55657,3.53514 l -24.36185,17.80648 a 2.5157408,2.5308855 0 0 0 -0.52638,3.57606 377.36107,379.6328 0 0 0 46.32496,51.07606 2.5157408,2.5308855 0 0 0 3.73152,-0.38143 l 108.05328,-149.6179 a 25.157405,25.308853 0 0 1 35.13993,-5.59913 l 22.7951,16.66131 a 25.157405,25.308853 0 0 1 5.56561,35.35148 L 213.4233,727.01944 a 2.5157408,2.5308855 0 0 0 0.79251,3.68812 377.36107,379.6328 0 0 0 62.60072,28.5395 2.5157408,2.5308855 0 0 0 3.21804,-1.60869 l 9.30539,-28.81148 a 2.5157408,2.5308855 0 0 1 3.17003,-1.62494 l 4.78522,1.56418 a 2.5157408,2.5308855 0 0 1 1.61519,3.1891 l -9.30538,28.81148 a 2.5157408,2.5308855 0 0 0 1.66354,3.20438 377.36107,379.6328 0 0 0 67.31977,13.92835 2.5157408,2.5308855 0 0 0 2.79601,-2.51513 v -184.9379 a 25.157405,25.308853 0 0 1 25.15741,-25.30886 h 28.1763 a 25.157405,25.308853 0 0 1 25.15739,25.30886 v 184.9379 a 2.5157408,2.5308855 0 0 0 2.79601,2.51513 377.36107,379.6328 0 0 0 67.31979,-13.92835 2.5157408,2.5308855 0 0 0 1.66353,-3.20438 l -9.3054,-28.81148 a 2.5157408,2.5308855 0 0 1 1.61521,-3.1891 l 4.78522,-1.56418 a 2.5157408,2.5308855 0 0 1 3.17002,1.62494 l 9.30539,28.81148 a 2.5157408,2.5308855 0 0 0 3.21804,1.60869 377.36107,379.6328 0 0 0 62.60072,-28.5395 2.5157408,2.5308855 0 0 0 0.79253,-3.68812 L 479.78322,577.40154 a 25.157405,25.308853 0 0 1 5.56561,-35.35148 l 22.7951,-16.66131 a 25.157405,25.308853 0 0 1 35.13992,5.59913 l 108.05328,149.6179 a 2.5157408,2.5308855 0 0 0 3.73154,0.38143 377.36107,379.6328 0 0 0 46.32494,-51.07606 2.5157408,2.5308855 0 0 0 -0.52638,-3.57606 l -24.36184,-17.80648 a 2.5157408,2.5308855 0 0 1 -0.55658,-3.53514 l 2.95744,-4.09507 a 2.5157408,2.5308855 0 0 1 3.514,-0.55991 l 24.36184,17.80647 a 2.5157408,2.5308855 0 0 0 3.54335,-0.60143 377.36107,379.6328 0 0 0 33.97035,-60.10624 2.5157408,2.5308855 0 0 0 -1.51369,-3.45241 L 567.9482,496.83595 a 25.157405,25.308853 0 0 1 -16.15204,-31.89103 l 8.70696,-26.95855 a 25.157405,25.308853 0 0 1 31.70017,-16.24929 l 174.83388,57.14895 a 2.5157408,2.5308855 0 0 0 3.24175,-1.89796 377.36107,379.6328 0 0 0 7.63555,-68.71443 2.5157408,2.5308855 0 0 0 -2.51524,-2.58185 h -30.11289 a 2.5157408,2.5308855 0 0 1 -2.51575,-2.53089 v -5.06177 a 2.5157408,2.5308855 0 0 1 2.51575,-2.53089 h 30.11289 a 2.5157408,2.5308855 0 0 0 2.51524,-2.58184 377.36107,379.6328 0 0 0 -7.63555,-68.71443 2.5157408,2.5308855 0 0 0 -3.24175,-1.89796 l -174.83388,57.14895 a 25.157405,25.308853 0 0 1 -31.70017,-16.24929 l -8.70696,-26.95857 a 25.157405,25.308853 0 0 1 16.15204,-31.89101 l 174.8339,-57.14895 a 2.5157408,2.5308855 0 0 0 1.51369,-3.45241 377.36107,379.6328 0 0 0 -33.97035,-60.10622 2.5157408,2.5308855 0 0 0 -3.54335,-0.60144 l -24.36184,17.80648 a 2.5157408,2.5308855 0 0 1 -3.514,-0.55992 l -2.95744,-4.09506 a 2.5157408,2.5308855 0 0 1 0.55658,-3.53515 l 24.36184,-17.80647 a 2.5157408,2.5308855 0 0 0 0.52638,-3.57606 377.36107,379.6328 0 0 0 -46.32494,-51.07607 2.5157408,2.5308855 0 0 0 -3.73154,0.38143 L 543.28385,270.27216 a 25.157405,25.308853 0 0 1 -35.13992,5.5991 l -22.7951,-16.6613 A 25.157405,25.308853 0 0 1 479.78322,223.8585 L 587.8365,74.240608 a 2.5157408,2.5308855 0 0 0 -0.79253,-3.688136 377.36107,379.6328 0 0 0 -62.60072,-28.539485 2.5157408,2.5308855 0 0 0 -3.21804,1.608693 l -9.30539,28.811476 a 2.5157408,2.5308855 0 0 1 -3.17002,1.624923 l -2.39261,-0.782087 a 342.1407,344.20039 0 0 0 -21.60472,-6.280259 2.5157408,2.5308855 0 0 1 -1.77405,-3.235278 l 9.24285,-28.617832 a 2.5157408,2.5308855 0 0 0 -1.79396,-3.240274 377.36107,379.6328 0 0 0 -47.75586,-8.541747 2.5157408,2.5308855 0 0 0 -2.79601,2.51513 z"
       style="fill:none;stroke:#000000;stroke-width:1.33524"
       id="path840" />
    <path
       d="m 456.35355,400.63002 a 55.723655,56.059113 0 1 0 -111.44731,0 55.723655,56.059113 0 1 0 111.44731,0 z"
       style="fill:none;stroke:#000000;stroke-width:1.33524"
       id="path842" />
  </g>
</svg>
